<svg width="31" height="26" viewBox="0 0 31 26" fill="none" xmlns="http://www.w3.org/2000/svg">
<path d="M4.29073 2.53766C4.12967 2.53574 3.97168 2.5817 3.83683 2.66969C3.70198 2.75769 3.59636 2.88374 3.53339 3.03185C3.47043 3.17995 3.45296 3.3434 3.4832 3.50145C3.51344 3.65949 3.59003 3.80498 3.70324 3.91944C3.81645 4.0339 3.96116 4.11215 4.11899 4.14425C4.27682 4.17635 4.44065 4.16086 4.58964 4.09973C4.73863 4.03861 4.86607 3.93461 4.95577 3.80096C5.04546 3.66731 5.09335 3.51004 5.09337 3.34914C5.09465 3.24303 5.07483 3.13773 5.03507 3.03933C4.9953 2.94093 4.93639 2.85139 4.86173 2.77591C4.78707 2.70043 4.69815 2.6405 4.60013 2.5996C4.50212 2.5587 4.39695 2.53765 4.29073 2.53766Z" fill="#D2D1F9"/>
<path d="M7.12793 2.5376C6.96727 2.5376 6.81022 2.58519 6.67664 2.67436C6.54305 2.76352 6.43894 2.89026 6.37746 3.03854C6.31598 3.18682 6.29989 3.34998 6.33123 3.50739C6.36258 3.66481 6.43994 3.8094 6.55354 3.92289C6.66715 4.03638 6.81189 4.11366 6.96946 4.14497C7.12703 4.17628 7.29036 4.16021 7.43879 4.0988C7.58722 4.03738 7.71408 3.93337 7.80334 3.79992C7.8926 3.66647 7.94024 3.50958 7.94024 3.34908C7.94024 3.24252 7.91923 3.13699 7.87841 3.03854C7.83758 2.94009 7.77775 2.85063 7.70232 2.77528C7.62689 2.69992 7.53734 2.64015 7.43879 2.59937C7.34023 2.55859 7.23461 2.5376 7.12793 2.5376Z" fill="#D2D1F9"/>
<path d="M9.95918 2.53766C9.79852 2.53766 9.64147 2.58525 9.50789 2.67442C9.3743 2.76358 9.27019 2.89032 9.20871 3.0386C9.14723 3.18688 9.13114 3.35004 9.16248 3.50745C9.19383 3.66487 9.27119 3.80946 9.38479 3.92295C9.4984 4.03643 9.64314 4.11372 9.80071 4.14503C9.95828 4.17634 10.1216 4.16027 10.27 4.09885C10.4185 4.03743 10.5453 3.93342 10.6346 3.79998C10.7238 3.66653 10.7715 3.50964 10.7715 3.34914C10.7728 3.24222 10.7527 3.13611 10.7123 3.03707C10.6719 2.93803 10.6122 2.84806 10.5365 2.77245C10.4608 2.69683 10.3707 2.63711 10.2716 2.59679C10.1724 2.55646 10.0662 2.53636 9.95918 2.53766Z" fill="#D2D1F9"/>
<path d="M26.1273 23.4701C26.1273 23.7775 26.005 24.0724 25.7874 24.2898C25.5697 24.5072 25.2746 24.6293 24.9668 24.6293H13.9426C13.8107 24.6393 13.6781 24.6393 13.5462 24.6293C13.4144 24.6441 13.2814 24.6441 13.1497 24.6293H3.07319C2.77217 24.6193 2.48685 24.4927 2.27753 24.2764C2.0682 24.0601 1.95126 23.7709 1.95143 23.4701V6.24536H26.1273V6.50619H27.0943V2.53572C27.0944 2.25758 27.0388 1.98223 26.9308 1.72587C26.8228 1.4695 26.6646 1.23728 26.4655 1.04287C26.2664 0.848464 26.0304 0.695781 25.7713 0.593803C25.5123 0.491824 25.2355 0.442607 24.9571 0.449046H3.07319C2.51921 0.449046 1.98791 0.668891 1.59619 1.06022C1.20447 1.45154 0.984397 1.9823 0.984397 2.53572V23.4701C0.983124 23.7449 1.03621 24.0173 1.14061 24.2716C1.24501 24.5258 1.39867 24.757 1.59276 24.9518C1.78685 25.1466 2.01755 25.3012 2.2716 25.4066C2.52566 25.5121 2.79807 25.5664 3.07319 25.5664H24.9571C25.2363 25.5729 25.5139 25.5233 25.7736 25.4208C26.0333 25.3182 26.2697 25.1646 26.469 24.9692C26.6682 24.7738 26.8262 24.5404 26.9336 24.2829C27.041 24.0254 27.0957 23.749 27.0943 23.4701V20.9004H26.1273V23.4701ZM1.95143 2.53572C1.96109 2.24158 2.08238 1.96212 2.29069 1.75401C2.499 1.54591 2.77875 1.42475 3.07319 1.4151H24.9571C25.26 1.41241 25.5519 1.52811 25.7705 1.73748C25.9891 1.94686 26.1172 2.23333 26.1273 2.53572V5.27931H1.95143V2.53572Z" fill="#D2D1F9"/>
<path d="M28.7472 7.88599H15.112C14.5751 7.88598 14.06 8.09839 13.6795 8.47676C13.2989 8.85513 13.0838 9.36866 13.0812 9.90503V22.8115C13.0814 22.9019 13.108 22.9904 13.1579 23.0659C13.2077 23.1414 13.2785 23.2007 13.3617 23.2366C13.4222 23.2502 13.4849 23.2502 13.5454 23.2366C13.6595 23.2381 13.7699 23.1967 13.8549 23.1206L18.0131 19.4689H28.7472C29.2841 19.4664 29.7982 19.2515 30.1769 18.8713C30.5557 18.4912 30.7683 17.9766 30.7683 17.4402V9.90503C30.7657 9.37033 30.552 8.85825 30.1735 8.48016C29.795 8.10206 29.2824 7.88853 28.7472 7.88599ZM29.8399 17.4789C29.8399 17.7684 29.7248 18.0461 29.5199 18.2508C29.3149 18.4555 29.037 18.5705 28.7472 18.5705H17.8391C17.7259 18.574 17.6171 18.6147 17.5296 18.6864L14.0193 21.7778V9.90503C14.0193 9.61551 14.1344 9.33785 14.3393 9.13313C14.5443 8.92841 14.8222 8.8134 15.112 8.8134H28.7472C29.0362 8.81592 29.3127 8.93174 29.5171 9.13592C29.7215 9.34009 29.8374 9.61629 29.8399 9.90503V17.4789Z" fill="#D2D1F9"/>
<path d="M21.4679 14.8657H17.271C17.1428 14.8657 17.0198 14.9166 16.9291 15.0072C16.8384 15.0978 16.7875 15.2206 16.7875 15.3487C16.7875 15.4769 16.8384 15.5997 16.9291 15.6903C17.0198 15.7809 17.1428 15.8318 17.271 15.8318H21.4679C21.5962 15.8318 21.7192 15.7809 21.8098 15.6903C21.9005 15.5997 21.9515 15.4769 21.9515 15.3487C21.9515 15.2206 21.9005 15.0978 21.8098 15.0072C21.7192 14.9166 21.5962 14.8657 21.4679 14.8657Z" fill="#D2D1F9"/>
<path d="M26.583 11.6073H17.2704C17.1481 11.6098 17.0315 11.6595 16.9449 11.7459C16.8584 11.8323 16.8087 11.9488 16.8063 12.071C16.8063 12.194 16.8552 12.312 16.9422 12.3989C17.0293 12.4859 17.1473 12.5347 17.2704 12.5347H26.583C26.6507 12.5438 26.7196 12.5374 26.7846 12.5161C26.8496 12.4948 26.9089 12.4592 26.9581 12.4119C27.0074 12.3645 27.0453 12.3067 27.0691 12.2426C27.0929 12.1786 27.1019 12.1101 27.0955 12.0421C27.0919 11.9794 27.0756 11.918 27.0476 11.8618C27.0196 11.8056 26.9804 11.7556 26.9325 11.715C26.8846 11.6743 26.8289 11.6438 26.7688 11.6253C26.7087 11.6068 26.6455 11.6007 26.583 11.6073Z" fill="#D2D1F9"/>
</svg>
