<svg width="189" height="245" viewBox="0 0 189 245" fill="none" xmlns="http://www.w3.org/2000/svg">
<path d="M26.561 50.9189H42.6075" stroke="url(#paint0_linear_1_7747)" stroke-width="2" stroke-linecap="round" stroke-linejoin="round"/>
<path d="M109.467 50.9189H125.513" stroke="url(#paint1_linear_1_7747)" stroke-width="2" stroke-linecap="round" stroke-linejoin="round"/>
<path d="M76.0347 1.5V14.7398" stroke="url(#paint2_linear_1_7747)" stroke-width="2" stroke-linecap="round" stroke-linejoin="round"/>
<path d="M76.0347 87.0977V100.343" stroke="url(#paint3_linear_1_7747)" stroke-width="2" stroke-linecap="round" stroke-linejoin="round"/>
<path d="M43.3184 18.2383L46.9861 21.902" stroke="url(#paint4_linear_1_7747)" stroke-width="2" stroke-linecap="round" stroke-linejoin="round"/>
<path d="M108.803 83.6507L105.14 79.9921" stroke="url(#paint5_linear_1_7747)" stroke-width="2" stroke-linecap="round" stroke-linejoin="round"/>
<path d="M108.803 18.2383L105.14 21.902" stroke="url(#paint6_linear_1_7747)" stroke-width="2" stroke-linecap="round" stroke-linejoin="round"/>
<path d="M43.3184 83.6507L46.9861 79.9921" stroke="url(#paint7_linear_1_7747)" stroke-width="2" stroke-linecap="round" stroke-linejoin="round"/>
<path d="M76.0346 40.7619L84.8073 18.2188L81.119 42.1255L100.004 26.9818L84.8434 45.8407L108.777 42.1564L86.2033 50.9195L108.777 59.6877L84.8434 55.9982L100.004 74.8622L81.119 59.7185L84.8073 83.6253L76.0346 61.077L67.2618 83.6253L70.9502 59.7185L52.0652 74.8622L67.2309 55.9982L43.2925 59.6877L65.8658 50.9195L43.2925 42.1564L67.2309 45.8407L52.0652 26.9818L70.9502 42.1255L67.2618 18.2188L76.0346 40.7619Z" stroke="url(#paint8_linear_1_7747)" stroke-width="2" stroke-linecap="round" stroke-linejoin="round"/>
<path d="M3.22902 209.713C1.53906 213.332 0.789844 217.318 1.05066 221.302C1.31148 225.287 2.57392 229.141 4.72121 232.509C6.8685 235.877 9.83132 238.65 13.3357 240.571C16.84 242.492 20.7727 243.499 24.7701 243.5V243.5C27.9009 243.504 31.0015 242.889 33.8933 241.691C36.7852 240.493 39.4112 238.735 41.62 236.518C43.8288 234.302 45.5769 231.671 46.7635 228.777C47.9501 225.883 48.5518 222.784 48.534 219.656C48.4567 209.501 48.9302 199.915 50.9597 199.751C62.3246 198.786 81.4593 197.048 86.533 197.048H110.577C115.136 197.049 119.538 195.388 122.957 192.376L160.53 159.333L187.996 128.143C187.996 128.143 188.469 122.708 179.607 126.434C170.745 130.16 161.903 141.02 161.903 141.02C161.903 141.02 162.869 128.471 161.903 126.54C160.936 124.609 153.35 108.691 150.093 106.992C146.836 105.293 143.879 114.435 146.054 120.642C148.228 126.849 150.886 133.838 150.886 133.838L147.629 151.523L144.981 142.526C144.981 142.526 147.784 140.817 147.784 138.665C147.784 136.512 146.537 134.166 143.116 133.394C142.373 133.178 141.608 133.045 140.835 132.998C140.217 131.724 137.066 125.411 134.418 123.461C131.471 121.289 122.145 111.973 120.125 111.819C118.105 111.664 116.549 114.927 119.159 121.907C121.022 126.424 123.891 130.458 127.547 133.703L123.817 134.321C123.817 134.321 113.099 120.97 110.287 120.97C107.475 120.97 105.784 125.324 108.267 129.658C110.751 133.992 111.998 136.483 111.998 136.483C111.998 136.483 88.8523 139.746 82.793 139.746C76.7336 139.746 55.9173 145.953 50.7857 149.515C45.6541 153.077 29.3799 162.846 25.466 167.055C21.552 171.264 11.8687 191.218 3.22902 209.713ZM129.538 148.704H132.099C132.099 148.704 132.621 152.15 133.065 154.216C133.51 156.282 129.577 157.238 129.577 157.238C129.577 157.238 130.437 154.129 130.543 153.512C130.303 151.891 129.968 150.285 129.538 148.704V148.704ZM101.57 154.216L117.448 151.137L117.893 155.848L114.945 159.796C107.784 159.101 101.57 154.216 101.57 154.216Z" stroke="url(#paint9_linear_1_7747)" stroke-width="2" stroke-linecap="round" stroke-linejoin="round"/>
<path d="M112.055 136.561L116.723 143.54L117.883 155.887L109.031 167.751C109.031 167.751 66.8664 162.721 49.4229 175.203" stroke="url(#paint10_linear_1_7747)" stroke-width="2" stroke-linecap="round" stroke-linejoin="round"/>
<path d="M119.748 182.616C119.748 182.616 130.465 156.774 130.465 153.512C130.465 150.249 126.097 137.043 123.865 134.35" stroke="url(#paint11_linear_1_7747)" stroke-width="2" stroke-linecap="round" stroke-linejoin="round"/>
<path d="M140.951 133.259L144.99 142.574L147.638 151.571L148.411 154.071C148.632 154.774 148.7 155.515 148.612 156.245C148.524 156.976 148.281 157.68 147.899 158.309L137.742 175.174" stroke="url(#paint12_linear_1_7747)" stroke-width="2" stroke-linecap="round" stroke-linejoin="round"/>
<path d="M161.932 141.021V152.122" stroke="#BE7C76" stroke-width="2" stroke-linecap="round" stroke-linejoin="round"/>
<path d="M127.595 133.732L130.465 137.805L132.099 148.704" stroke="url(#paint13_linear_1_7747)" stroke-width="2" stroke-linecap="round" stroke-linejoin="round"/>
<defs>
<linearGradient id="paint0_linear_1_7747" x1="26.561" y1="51.3724" x2="48.2336" y2="55.0308" gradientUnits="userSpaceOnUse">
<stop stop-color="#6A4DBC"/>
<stop offset="1" stop-color="#F2994A"/>
</linearGradient>
<linearGradient id="paint1_linear_1_7747" x1="109.467" y1="51.3724" x2="131.139" y2="55.0308" gradientUnits="userSpaceOnUse">
<stop stop-color="#6A4DBC"/>
<stop offset="1" stop-color="#F2994A"/>
</linearGradient>
<linearGradient id="paint2_linear_1_7747" x1="76.0347" y1="7.5033" x2="77.4238" y2="7.5044" gradientUnits="userSpaceOnUse">
<stop stop-color="#6A4DBC"/>
<stop offset="1" stop-color="#F2994A"/>
</linearGradient>
<linearGradient id="paint3_linear_1_7747" x1="76.0347" y1="93.1033" x2="77.4238" y2="93.1044" gradientUnits="userSpaceOnUse">
<stop stop-color="#6A4DBC"/>
<stop offset="1" stop-color="#F2994A"/>
</linearGradient>
<linearGradient id="paint4_linear_1_7747" x1="43.3184" y1="19.8995" x2="48.4127" y2="19.9532" gradientUnits="userSpaceOnUse">
<stop stop-color="#6A4DBC"/>
<stop offset="1" stop-color="#F2994A"/>
</linearGradient>
<linearGradient id="paint5_linear_1_7747" x1="105.14" y1="81.651" x2="110.227" y2="81.7046" gradientUnits="userSpaceOnUse">
<stop stop-color="#6A4DBC"/>
<stop offset="1" stop-color="#F2994A"/>
</linearGradient>
<linearGradient id="paint6_linear_1_7747" x1="105.14" y1="19.8995" x2="110.227" y2="19.953" gradientUnits="userSpaceOnUse">
<stop stop-color="#6A4DBC"/>
<stop offset="1" stop-color="#F2994A"/>
</linearGradient>
<linearGradient id="paint7_linear_1_7747" x1="43.3184" y1="81.651" x2="48.4127" y2="81.7047" gradientUnits="userSpaceOnUse">
<stop stop-color="#6A4DBC"/>
<stop offset="1" stop-color="#F2994A"/>
</linearGradient>
<linearGradient id="paint8_linear_1_7747" x1="43.2925" y1="47.8759" x2="134.246" y2="48.8338" gradientUnits="userSpaceOnUse">
<stop stop-color="#6A4DBC"/>
<stop offset="1" stop-color="#F2994A"/>
</linearGradient>
<linearGradient id="paint9_linear_1_7747" x1="1" y1="168.775" x2="260.707" y2="172.512" gradientUnits="userSpaceOnUse">
<stop stop-color="#6A4DBC"/>
<stop offset="1" stop-color="#F2994A"/>
</linearGradient>
<linearGradient id="paint10_linear_1_7747" x1="49.4229" y1="154.082" x2="144.487" y2="155.854" gradientUnits="userSpaceOnUse">
<stop stop-color="#6A4DBC"/>
<stop offset="1" stop-color="#F2994A"/>
</linearGradient>
<linearGradient id="paint11_linear_1_7747" x1="119.748" y1="156.235" x2="134.635" y2="156.27" gradientUnits="userSpaceOnUse">
<stop stop-color="#6A4DBC"/>
<stop offset="1" stop-color="#F2994A"/>
</linearGradient>
<linearGradient id="paint12_linear_1_7747" x1="137.742" y1="152.264" x2="152.893" y2="152.306" gradientUnits="userSpaceOnUse">
<stop stop-color="#6A4DBC"/>
<stop offset="1" stop-color="#F2994A"/>
</linearGradient>
<linearGradient id="paint13_linear_1_7747" x1="127.131" y1="133.112" x2="135.659" y2="147.301" gradientUnits="userSpaceOnUse">
<stop stop-color="#AC7285"/>
<stop offset="1" stop-color="#AF7483"/>
</linearGradient>
</defs>
</svg>
