<svg width="32" height="32" viewBox="0 0 32 32" fill="none" xmlns="http://www.w3.org/2000/svg">
<path d="M23.8227 18.2017L27.3658 14.2973C27.7491 13.8748 28.2839 13.6223 28.8528 13.5953C29.4217 13.5683 29.9779 13.7691 30.3992 14.1535L21.7007 27.3033" stroke="#D2D1F9" stroke-width="0.722892" stroke-linecap="round" stroke-linejoin="round"/>
<path d="M16.1995 27.3071C16.1995 23.9889 16.1995 23.9889 17.6488 22.4613L21.6648 18.0371C21.9114 17.7737 22.2515 17.6182 22.6114 17.6041C22.9714 17.59 23.3224 17.7185 23.5888 17.9618C23.8552 18.2051 24.0154 18.5437 24.0351 18.9045C24.0547 19.2653 23.932 19.6194 23.6936 19.8904L21.089 22.7612" stroke="#D2D1F9" stroke-width="0.722892" stroke-linecap="round" stroke-linejoin="round"/>
<path d="M8.5753 18.2025L5.0322 14.2981C4.84251 14.089 4.61362 13.9193 4.35858 13.7989C4.10354 13.6785 3.82734 13.6096 3.54578 13.5963C3.26421 13.5829 2.98277 13.6253 2.71754 13.7211C2.45231 13.8168 2.20848 13.9641 1.99998 14.1544L10.6985 27.3042" stroke="#D2D1F9" stroke-width="0.722892" stroke-linecap="round" stroke-linejoin="round"/>
<path d="M16.201 27.3073C16.201 23.9891 16.201 23.9891 14.7504 22.4615L10.7357 18.0372C10.4907 17.7672 10.1488 17.6059 9.78517 17.5887C9.42158 17.5715 9.06608 17.6999 8.79688 17.9457C8.52768 18.1914 8.36682 18.5344 8.34971 18.8991C8.33259 19.2639 8.46061 19.6205 8.70561 19.8905L11.3115 22.7614" stroke="#D2D1F9" stroke-width="0.722892" stroke-linecap="round" stroke-linejoin="round"/>
<path d="M23.5195 7.74831C23.4668 5.67875 21.8459 4 19.7828 4C18.4058 4 17.0201 4.72508 16.1981 5.67384C15.3748 4.72508 13.9891 4 12.6121 4C10.5489 4 8.9293 5.67875 8.87662 7.74831C8.76268 12.2512 14.8479 16.3227 16.1981 17.1314C17.5469 16.3215 23.6334 12.25 23.5195 7.74831Z" stroke="#D2D1F9" stroke-width="0.722892" stroke-linecap="round" stroke-linejoin="round"/>
</svg>
