<svg width="140" height="20" viewBox="0 0 140 20" fill="none" xmlns="http://www.w3.org/2000/svg">
<path d="M40.9044 0H28.6286L28.6188 19.9998H40.9044V17.8675H30.9862V10.5883H37.5706V8.38548H30.9862V2.13234H40.9044V0ZM85.9954 0V13.4158C85.9954 15.8908 83.7817 17.8714 81.0216 17.8714C78.243 17.8714 76.0772 15.7674 76.0772 13.4726V12.33H76.0674V0.0381765L76.0772 0.00880653H73.7V13.2826C73.8733 18.4236 77.5811 19.9949 81.0118 19.9949C84.8352 20.1379 88.2081 17.2341 88.3521 13.406V0H85.9954ZM101.391 17.8665V0H99.0231V19.9998H111.749V17.8665H101.391ZM135.612 11.7328L140 19.9998H137.72L134.634 14.2382L122.186 17.7813L121.008 19.991H118.726L120.883 15.9623L135.612 11.7328ZM129.363 0L134.586 9.83838L122.263 13.3805L129.363 0ZM129.363 4.32344L126.354 9.99992L131.596 8.50493L129.363 4.32344ZM8.14602 13.36L10.4733 12.9596L18.0015 19.9998V0H15.6214V14.667L11.2174 10.5599L6.54032 11.5204L8.14602 13.36ZM9.97398 6.61342L7.46751 7.04028L0 0V19.9998H2.38017V5.33283L6.72438 9.4399L11.283 8.50689L9.97398 6.61342ZM51.4002 0H56.6805C60.2923 0 62.7939 1.38338 62.7939 4.89912C62.7939 6.87776 61.855 8.63612 60.1974 9.24117V9.3655C62.3239 9.83642 63.8092 11.4117 63.8092 14.1501C63.8092 18.079 61.0404 19.9998 57.0829 19.9998H51.4002V0ZM56.2967 8.52059C59.325 8.52059 60.5704 7.26252 60.5704 5.23493C60.5704 2.9009 59.1527 2.02661 56.3926 2.02661H53.6521V8.52059H56.2967ZM56.7568 17.9928C59.795 17.9928 61.5867 16.7631 61.5867 14.0629C61.5867 11.5948 59.8615 10.4708 56.7568 10.4708H53.6619V17.9928H56.7568Z" fill="#E6E6E6"/>
</svg>
